HIERARCHY
ROOT Pelvis
{
	OFFSET -0.217368 -24.078917 2.858379
	CHANNELS 6 Xposition Yposition Zposition Zrotation Yrotation Xrotation 
	JOINT Left_hip
	{
		OFFSET 5.858135 -8.228005 -1.766408
		CHANNELS 3 Zrotation Yrotation Xrotation
		JOINT Left_knee
		{
			OFFSET 4.345143 -38.646942 0.803700
			CHANNELS 3 Zrotation Yrotation Xrotation
			JOINT Left_ankle
			{
				OFFSET -1.479033 -42.687447 -3.742800
				CHANNELS 3 Zrotation Yrotation Xrotation
				JOINT Left_foot
				{
					OFFSET 4.105436 -6.028605 12.204244
					CHANNELS 3 Zrotation Yrotation Xrotation
					End Site
					{
						OFFSET 0.000000 0.000000 0.000000
					}
				}
			}
		}
	}
	JOINT Right_hip
	{
		OFFSET -6.030973 -9.051328 -1.354253
		CHANNELS 3 Zrotation Yrotation Xrotation
		JOINT Right_knee
		{
			OFFSET -4.325663 -38.368790 -0.484304
			CHANNELS 3 Zrotation Yrotation Xrotation
			JOINT Right_ankle
			{
				OFFSET 1.905555 -42.004566 -3.456167
				CHANNELS 3 Zrotation Yrotation Xrotation
				JOINT Right_foot
				{
					OFFSET -3.483987 -6.210554 13.032330
					CHANNELS 3 Zrotation Yrotation Xrotation
					End Site
					{
						OFFSET 0.000000 0.000000 0.000000
					}
				}
			}
		}
	}
	JOINT Spine1
	{
		OFFSET 0.443945 12.440353 -3.838522
		CHANNELS 3 Zrotation Yrotation Xrotation
		JOINT Spine2
		{
			OFFSET 0.448844 13.795640 2.682033
			CHANNELS 3 Zrotation Yrotation Xrotation
			JOINT Spine3
			{
				OFFSET -0.226460 5.603239 0.285504
				CHANNELS 3 Zrotation Yrotation Xrotation
				JOINT Neck
				{
					OFFSET -1.339018 21.163553 -3.346758
					CHANNELS 3 Zrotation Yrotation Xrotation
					JOINT Head
					{
						OFFSET 1.011321 8.893734 5.040987
						CHANNELS 3 Zrotation Yrotation Xrotation
						End Site
						{
							OFFSET 0.000000 0.000000 0.000000
						}
					}
				}
				JOINT Left_collar
				{
					OFFSET 7.170247 11.399971 -1.889817
					CHANNELS 3 Zrotation Yrotation Xrotation
					JOINT Left_shoulder
					{
						OFFSET 12.292140 4.520507 -1.904600
						CHANNELS 3 Zrotation Yrotation Xrotation
						JOINT Left_elbow
						{
							OFFSET 25.533188 -1.564902 -2.294648
							CHANNELS 3 Zrotation Yrotation Xrotation
							JOINT Left_wrist
							{
								OFFSET 26.570929 1.269810 -0.737473
								CHANNELS 3 Zrotation Yrotation Xrotation
								JOINT Left_palm
								{
									OFFSET 8.669054 -1.063602 -1.559429
									CHANNELS 3 Zrotation Yrotation Xrotation
									End Site
									{
										OFFSET 0.000000 0.000000 0.000000
									}
								}
							}
						}
					}
				}
				JOINT Right_collar
				{
					OFFSET -8.295364 11.247234 -2.370738
					CHANNELS 3 Zrotation Yrotation Xrotation
					JOINT Right_shoulder
					{
						OFFSET -11.322830 4.685326 -0.847207
						CHANNELS 3 Zrotation Yrotation Xrotation
						JOINT Right_elbow
						{
							OFFSET -26.012751 -1.436928 -3.126872
							CHANNELS 3 Zrotation Yrotation Xrotation
							JOINT Right_wrist
							{
								OFFSET -26.910841 0.679372 -0.602677
								CHANNELS 3 Zrotation Yrotation Xrotation
								JOINT Right_palm
								{
									OFFSET -8.875370 -0.865157 -1.010708
									CHANNELS 3 Zrotation Yrotation Xrotation
									End Site
									{
										OFFSET 0.000000 0.000000 0.000000
									}
								}
							}
						}
					}
				}
			}
		}
	}
}
MOTION
Frames: 12
Frame Time: 0.016667
-33.321987 68.364357 -59.324078 -6.064254 83.399244 -0.497653 7.278198 -0.515059 -15.417216 -1.495023 -0.505618 30.282154 7.350015 14.510994 -5.142896 0.000000 0.000000 0.000000 -11.978030 0.156980 -24.629877 -1.946865 3.239168 47.827968 -0.932105 -8.656364 19.211351 0.000000 0.000000 0.000000 2.689675 -1.399348 21.173078 -0.986261 0.895047 -25.909864 0.179513 -8.869635 22.040919 5.565039 -0.090246 -32.425320 0.000000 0.000000 0.000000 -22.231892 -12.655758 4.929099 -49.043641 -24.804500 4.716588 -6.099974 -47.633538 4.508387 0.000000 0.000000 0.000000 0.000000 0.000000 0.000000 27.364120 2.872989 -1.059007 50.149671 10.299479 -0.228107 -3.826702 36.284960 -0.023352 0.000000 0.000000 0.000000 0.000000 0.000000 0.000000 
-33.761341 72.057236 -60.141502 4.900696 87.921479 12.946210 5.414759 -0.682249 -14.006867 -1.170649 -0.262404 16.048726 6.011269 12.848415 1.996642 0.000000 0.000000 0.000000 -9.465127 0.646816 -24.717219 1.918446 0.874487 43.285849 -0.673833 -7.426010 16.004295 0.000000 0.000000 0.000000 4.044338 -1.529306 19.447592 -0.123427 0.685106 -25.226909 -0.127302 -9.370471 18.438726 3.493557 0.611793 -30.919745 0.000000 0.000000 0.000000 -23.533310 -9.471593 3.062713 -49.888564 -17.663575 1.746002 -8.604821 -43.924823 5.124424 0.000000 0.000000 0.000000 0.000000 0.000000 0.000000 25.991644 2.488763 -1.182231 53.737728 7.759214 -1.339453 -8.456060 31.447135 -1.218230 0.000000 0.000000 0.000000 0.000000 0.000000 0.000000 
-34.113033 76.121010 -60.933922 122.592590 87.443445 132.765864 4.252561 -0.580237 -9.771368 -4.650265 0.519343 1.326367 2.167409 8.330799 12.631326 0.000000 0.000000 0.000000 -6.920747 1.210014 -26.339651 7.212758 -1.712605 36.761202 -1.138497 -9.240656 20.335082 0.000000 0.000000 0.000000 3.915201 -1.330278 17.169074 0.147891 0.649835 -26.301796 0.129786 -10.116412 18.164337 0.248447 1.442606 -22.394569 0.000000 0.000000 0.000000 -22.864703 -5.648083 0.831663 -46.971240 -11.271622 -0.908581 -14.425202 -43.676479 7.438195 0.000000 0.000000 0.000000 0.000000 0.000000 0.000000 22.782233 -0.990258 -2.921150 54.464680 3.418262 -3.312112 -4.079064 28.699740 -0.059070 0.000000 0.000000 0.000000 0.000000 0.000000 0.000000 
-34.370953 77.529060 -62.020168 133.445788 84.734675 144.408114 4.896880 -0.192541 -2.765321 -3.649980 0.403783 -1.730188 -2.894118 1.238259 15.500811 0.000000 0.000000 0.000000 -3.567029 2.053614 -28.256925 11.495391 -3.458186 33.988616 -0.248420 -6.837723 16.561816 0.000000 0.000000 0.000000 5.268436 -1.486434 16.485954 -0.002662 0.663547 -25.490091 -0.001912 -10.228477 17.417878 -0.679383 1.723495 -18.929549 0.000000 0.000000 0.000000 -21.357508 -1.979362 -1.151248 -44.608478 -6.498512 -2.594374 -17.384621 -40.417299 7.933118 0.000000 0.000000 0.000000 0.000000 0.000000 0.000000 17.796929 -2.091069 -2.886180 54.738818 -2.076130 -5.798525 0.903434 25.704195 0.990240 0.000000 0.000000 0.000000 0.000000 0.000000 0.000000 
-34.612888 76.054848 -63.362217 135.129618 79.251758 145.509218 6.166681 -0.015767 1.549511 -2.932976 0.303274 2.242324 -1.484123 3.406938 15.433772 0.000000 0.000000 0.000000 -2.125697 2.284462 -27.101789 10.560526 -2.734433 28.691878 -1.094396 -7.551461 13.660834 0.000000 0.000000 0.000000 3.293322 -1.008006 14.030985 1.381051 0.221167 -22.117602 -2.004224 -10.634372 16.460830 -0.898001 1.578309 -14.132853 0.000000 0.000000 0.000000 -20.725691 -1.149653 -1.550290 -39.557043 -1.575450 -3.812786 -25.967377 -38.285629 10.556491 0.000000 0.000000 0.000000 0.000000 0.000000 0.000000 15.105819 -4.717637 -3.824996 53.859105 -8.803487 -8.625883 12.248620 29.050741 3.856132 0.000000 0.000000 0.000000 0.000000 0.000000 0.000000 
-35.150406 72.843292 -64.950363 142.077403 75.966641 148.409648 12.212223 -0.261194 7.478134 -5.050161 0.653178 9.387895 -2.326763 0.796533 12.000664 0.000000 0.000000 0.000000 1.820510 2.605455 -22.602174 9.557345 -2.279663 27.071770 -6.227963 -16.439405 10.112931 0.000000 0.000000 0.000000 2.565957 -0.900216 13.846208 -1.264747 0.913709 -22.446420 -2.152768 -14.756843 19.876283 -1.702835 2.003068 -12.832804 0.000000 0.000000 0.000000 -18.400940 1.902576 -2.914083 -37.172317 1.117329 -4.324325 -26.465645 -38.706761 10.866890 0.000000 0.000000 0.000000 0.000000 0.000000 0.000000 14.394534 -6.515489 -4.579644 53.845335 -15.123619 -11.367474 14.503541 31.794328 4.876637 0.000000 0.000000 0.000000 0.000000 0.000000 0.000000 
-36.339661 69.784317 -66.201340 147.436757 73.343837 151.220883 17.431549 -0.679180 7.703654 -4.637829 0.638729 18.594167 -4.926201 -0.330640 19.370530 0.000000 0.000000 0.000000 2.611843 2.303195 -19.089167 10.376167 -2.525222 26.269768 -9.270533 -22.317707 4.159549 0.000000 0.000000 0.000000 2.049811 -0.771453 12.811544 -1.098160 0.844930 -20.643447 -2.692145 -13.773119 20.276090 -0.926672 1.517061 -12.747459 0.000000 0.000000 0.000000 -18.755549 2.094997 -3.062518 -33.314490 1.353167 -3.906100 -24.851765 -38.228384 10.134177 0.000000 0.000000 0.000000 0.000000 0.000000 0.000000 15.303899 -10.983720 -6.925654 54.117269 -19.339161 -13.278898 15.955044 30.768720 5.078826 0.000000 0.000000 0.000000 0.000000 0.000000 0.000000 
-38.415623 69.065628 -66.745010 145.039660 73.725539 148.372574 17.200257 -0.745614 9.130773 -5.098773 0.828090 23.797372 -3.037667 2.371901 19.226907 0.000000 0.000000 0.000000 2.285742 2.124076 -18.017594 10.618011 -2.518197 24.739027 -7.194911 -17.879102 2.521611 0.000000 0.000000 0.000000 2.561134 -0.741789 11.379756 -1.817163 1.020746 -17.937306 -3.023098 -11.805251 18.573741 2.083337 -0.782505 -8.318069 0.000000 0.000000 0.000000 -17.389428 1.933634 -2.795948 -34.606318 3.812875 -4.690512 -20.803052 -36.879207 8.346105 0.000000 0.000000 0.000000 0.000000 0.000000 0.000000 13.749668 -11.834714 -6.983777 58.248630 -17.754617 -13.766108 9.510507 27.175289 2.963641 0.000000 0.000000 0.000000 0.000000 0.000000 0.000000 
-41.370132 71.604431 -66.266541 142.466198 76.001616 146.287213 12.469652 -0.318500 9.579130 -4.962141 0.759256 21.511821 -5.033402 -0.596293 19.102526 0.000000 0.000000 0.000000 5.002752 2.005663 -14.660100 7.561254 -1.268342 16.826872 -4.231621 -12.895411 11.628899 0.000000 0.000000 0.000000 2.885750 -0.785600 11.509552 -3.339335 1.471396 -18.676499 -1.794339 -9.146383 17.937144 6.529736 -3.939802 -7.515160 0.000000 0.000000 0.000000 -17.793885 1.819813 -2.790862 -36.158683 6.469872 -5.628834 -18.966583 -35.158631 7.328964 0.000000 0.000000 0.000000 0.000000 0.000000 0.000000 13.423349 -12.799848 -7.361702 59.000594 -16.871724 -13.555246 12.388883 26.702430 3.538957 0.000000 0.000000 0.000000 0.000000 0.000000 0.000000 
-45.145451 75.060394 -65.054840 134.615970 80.121118 139.862850 6.772341 0.205459 8.903129 -4.711298 0.654059 17.947488 -3.721682 1.995649 20.953606 0.000000 0.000000 0.000000 6.156524 2.236597 -15.342834 8.800428 -1.517092 15.045687 0.331524 -5.135612 14.302781 0.000000 0.000000 0.000000 1.299302 -0.634035 11.926079 -2.806193 1.313996 -19.692116 -0.282295 -4.763106 17.581304 13.131952 -9.579286 -3.430791 0.000000 0.000000 0.000000 -17.032212 3.665671 -3.625730 -38.586743 7.599319 -6.376658 -17.194742 -33.523619 6.418863 0.000000 0.000000 0.000000 0.000000 0.000000 0.000000 11.580172 -11.724918 -6.442598 64.239687 -14.936253 -14.020852 12.380469 24.447325 3.203437 0.000000 0.000000 0.000000 0.000000 0.000000 0.000000 
-48.918793 76.390625 -63.483982 141.691081 83.996984 146.929596 4.455731 0.320636 7.131727 -3.199205 0.251643 16.454035 -0.781842 5.367822 18.344903 0.000000 0.000000 0.000000 7.338307 2.583816 -16.611392 11.213144 -2.608089 23.061908 0.730690 -2.664336 9.516034 0.000000 0.000000 0.000000 3.460921 -0.931852 12.667781 -4.091723 1.679777 -19.515295 -0.678128 -4.683092 20.062910 14.314579 -9.739791 -6.193784 0.000000 0.000000 0.000000 -21.331813 5.190530 -5.127557 -36.340092 7.112406 -5.832297 -11.122441 -32.784885 4.465728 0.000000 0.000000 0.000000 0.000000 0.000000 0.000000 14.814618 -11.982464 -7.299725 64.598321 -11.450854 -12.214467 10.392385 23.630463 2.703154 0.000000 0.000000 0.000000 0.000000 0.000000 0.000000 
-52.197941 74.502136 -61.427784 164.858056 88.760493 170.051155 5.920671 0.121688 4.864927 -3.208949 0.233664 19.770765 -0.131321 4.617949 12.572951 0.000000 0.000000 0.000000 9.327448 3.179866 -18.465476 9.030324 -2.870909 43.519821 -0.643168 -4.678365 7.282071 0.000000 0.000000 0.000000 3.687313 -1.140993 15.120929 -4.456003 1.699417 -24.475532 0.368654 -4.096044 23.869653 13.759057 -8.795792 -8.340012 0.000000 0.000000 0.000000 -24.138188 5.299811 -5.685230 -36.637064 6.862803 -5.817932 -7.622087 -31.481741 3.292721 0.000000 0.000000 0.000000 0.000000 0.000000 0.000000 17.403113 -12.607156 -8.226177 63.635174 -10.376983 -11.409944 12.911791 23.457781 3.159056 0.000000 0.000000 0.000000 0.000000 0.000000 0.000000 
